# xmcd CD database file
#
# Track frame offsets:
#	150
#	15934
#	32441
#	48347
#	62431
#	80997
#	96967
#	114379
#	131635
#	147240
#	160747
#	174030
#
# Disc length: 2499 seconds
#
# Revision: 0
# Processed by: cddbd v1.5.2PL0 Copyright (c) Steve Scherf et al.
# Submitted via: CDex 1.51
#
DISCID=8d09c10c
DTITLE=Börje Nylund - The Drifter
DYEAR=2006
DGENRE=Country
TTITLE0=The Drifter
TTITLE1=Hitch-Hike Blues
TTITLE2=I've Been Around
TTITLE3=Ohio Turnpike
TTITLE4=Welcome Me Wyoming
TTITLE5=Roamin' Romeo
TTITLE6=My Minnesota Maid
TTITLE7=Dianne From Cheyenne
TTITLE8=KRP
TTITLE9=Pick Me Up Train
TTITLE10=Hobo For A Day
TTITLE11=The Unbeatable Combination
EXTD=YEAR: 2006
EXTT0=
EXTT1=
EXTT2=
EXTT3=
EXTT4=
EXTT5=
EXTT6=
EXTT7=
EXTT8=
EXTT9=
EXTT10=
EXTT11=
PLAYORDER=
